<svg width="248" height="30" viewBox="0 0 248 30" fill="none" xmlns="http://www.w3.org/2000/svg">
<path d="M24.0078 27.2422C22.5104 27.9062 20.9154 28.4206 19.2227 28.7852C17.5299 29.1367 15.8698 29.3125 14.2422 29.3125C9.84115 29.3125 6.4362 28.056 4.02734 25.543C1.61849 23.0169 0.414062 19.4492 0.414062 14.8398C0.414062 10.2044 1.65755 6.6237 4.14453 4.09766C6.64453 1.55859 10.1732 0.289062 14.7305 0.289062C16.332 0.289062 17.9336 0.484375 19.5352 0.875C21.1367 1.2526 22.5755 1.78646 23.8516 2.47656L22.0547 6.79297C20.7005 6.23307 19.5156 5.82943 18.5 5.58203C17.4844 5.32161 16.4688 5.19141 15.4531 5.19141C12.5755 5.19141 10.3945 5.9987 8.91016 7.61328C7.42578 9.22786 6.68359 11.5977 6.68359 14.7227C6.68359 17.8216 7.36719 20.224 8.73438 21.9297C10.1146 23.6354 12.0612 24.4883 14.5742 24.4883C15.8503 24.4883 17.1003 24.3125 18.3242 23.9609V14.6055H24.0078V27.2422ZM34.4766 21.7148L32.1719 29H26.1562L35.3555 0.640625H43.4414L52.875 29H46.957L44.5547 21.7148H34.4766ZM39.3203 5.875L35.8438 17.2031H43.168L39.5938 5.875H39.3203ZM81.3125 13.7656C81.013 10.9401 80.7852 8.98047 80.6289 7.88672C80.4727 8.52474 80.1081 9.8724 79.5352 11.9297C78.9622 13.974 78.4479 15.7057 77.9922 17.125L74.2617 28.082H69.1055L65.4336 17.125C64.6654 14.8333 63.9036 12.2031 63.1484 9.23438L62.7578 7.88672L61.7031 17.125L60.3164 29H54.5547L58.1875 0.640625H65.1016L69.2227 13.0039C69.7826 14.8398 70.2122 16.3047 70.5117 17.3984C70.9935 19.2344 71.3906 20.5951 71.7031 21.4805C72.0286 20.5951 72.4323 19.2344 72.9141 17.3984C73.2135 16.3047 73.6367 14.8398 74.1836 13.0039L78.3047 0.640625H85.1797L88.8711 29H83.1094L81.6641 17.125L81.3125 13.7656ZM99.6523 12.1641H110.824V16.5977H99.6523V24.4883H112.426V29H93.5391V0.640625H112.016V5.15234H99.6523V12.1641ZM141.977 13.7656C141.677 10.9401 141.449 8.98047 141.293 7.88672C141.137 8.52474 140.772 9.8724 140.199 11.9297C139.626 13.974 139.112 15.7057 138.656 17.125L134.926 28.082H129.77L126.098 17.125C125.329 14.8333 124.568 12.2031 123.812 9.23438L123.422 7.88672L122.367 17.125L120.98 29H115.219L118.852 0.640625H125.766L129.887 13.0039C130.447 14.8398 130.876 16.3047 131.176 17.3984C131.658 19.2344 132.055 20.5951 132.367 21.4805C132.693 20.5951 133.096 19.2344 133.578 17.3984C133.878 16.3047 134.301 14.8398 134.848 13.0039L138.969 0.640625H145.844L149.535 29H143.773L142.328 17.125L141.977 13.7656ZM159.555 21.7148L157.25 29H151.234L160.434 0.640625H168.52L177.953 29H172.035L169.633 21.7148H159.555ZM164.398 5.875L160.922 17.2031H168.246L164.672 5.875H164.398ZM191.391 16.4414C190.453 15.1133 188.988 12.75 186.996 9.35156V29H181.43V0.640625H186.273L194.906 12.9648C196 14.5143 197.523 16.9102 199.477 20.1523V0.640625H205.062V29H200.18L191.391 16.4414ZM211.508 0.640625H217.621V29H211.508V0.640625ZM229.438 21.7148L227.133 29H221.117L230.316 0.640625H238.402L247.836 29H241.918L239.516 21.7148H229.438ZM234.281 5.875L230.805 17.2031H238.129L234.555 5.875H234.281Z" fill="white"/>
</svg>
